<!--?xml version="1.0" encoding="UTF-8"?-->
<svg version="1.1" xmlns="http://www.w3.org/2000/svg" width="862" height="1098">
<path d="M0,0 L31,0 L41,3 L52,13 L61,25 L66,37 L67,41 L67,402 L98,402 L98,89 L102,77 L109,67 L118,58 L132,50 L141,48 L152,48 L166,51 L178,57 L186,65 L194,79 L198,90 L199,95 L199,453 L198,457 L175,463 L145,468 L130,472 L97,483 L72,493 L53,500 L37,510 L22,520 L9,530 L-5,544 L-17,550 L-44,558 L-54,559 L-67,554 L-83,548 L-96,545 L-111,543 L-141,543 L-163,546 L-190,552 L-226,561 L-256,572 L-281,582 L-294,588 L-297,588 L-297,267 L-293,254 L-286,243 L-273,230 L-269,227 L-258,224 L-241,224 L-230,227 L-221,233 L-211,244 L-204,254 L-200,261 L-197,280 L-196,427 L-194,439 L-192,442 L-189,443 L-180,443 L-174,440 L-172,436 L-171,430 L-170,174 L-166,156 L-162,147 L-155,137 L-145,127 L-136,122 L-127,119 L-122,118 L-110,118 L-95,123 L-85,132 L-75,145 L-70,160 L-68,178 L-67,402 L-65,407 L-62,410 L-44,410 L-38,407 L-36,403 L-35,48 L-31,33 L-24,19 L-12,6 L-5,2 Z " transform="translate(442,33)" style="fill: rgb(61, 154, 194);"></path>
<path d="M0,0 L23,0 L32,3 L43,11 L47,17 L49,22 L49,56 L42,70 L34,83 L21,105 L0,137 L-10,156 L-24,178 L-38,201 L-50,220 L-53,227 L-55,227 L-57,233 L-59,238 L-61,238 L-63,243 L-75,263 L-92,291 L-105,313 L-115,327 L-123,341 L-137,360 L-150,378 L-162,394 L-171,405 L-183,420 L-188,430 L-196,446 L-211,462 L-220,472 L-227,480 L-240,493 L-248,500 L-277,529 L-296,543 L-304,549 L-312,551 L-329,551 L-345,543 L-359,533 L-370,526 L-390,516 L-406,506 L-420,495 L-433,484 L-443,475 L-458,461 L-483,436 L-490,428 L-499,418 L-510,407 L-518,400 L-525,392 L-546,371 L-553,363 L-573,343 L-581,336 L-593,325 L-606,313 L-617,304 L-636,285 L-641,276 L-641,227 L-640,214 L-625,213 L-619,216 L-609,225 L-604,229 L-591,234 L-581,243 L-574,250 L-557,262 L-545,269 L-526,276 L-511,281 L-497,284 L-489,285 L-478,285 L-458,281 L-442,276 L-426,269 L-407,259 L-394,248 L-385,237 L-374,217 L-366,196 L-362,181 L-358,159 L-354,151 L-346,146 L-342,145 L-332,145 L-322,159 L-310,176 L-300,185 L-286,196 L-275,203 L-261,210 L-243,216 L-228,219 L-207,219 L-191,216 L-166,209 L-154,204 L-143,197 L-130,187 L-119,177 L-108,162 L-102,152 L-96,134 L-93,118 L-91,103 L-88,97 L-77,84 L-61,60 L-53,49 L-43,36 L-34,26 L-17,9 L-6,2 Z " transform="translate(774,492)" style="fill: rgb(61, 154, 194);"></path>
<path d="M0,0 L1,0 L2,322 L-5,326 L-7,330 L-8,401 L-10,419 L-10,468 L-5,477 L15,497 L26,506 L41,520 L55,533 L63,540 L80,557 L87,565 L112,590 L118,597 L126,604 L139,617 L146,625 L155,635 L181,661 L189,668 L201,679 L215,690 L230,701 L248,711 L267,721 L282,732 L294,739 L301,742 L318,742 L325,741 L320,746 L306,756 L291,764 L283,767 L266,767 L258,763 L248,759 L228,748 L210,736 L194,724 L178,711 L170,704 L158,693 L143,680 L126,663 L119,655 L111,646 L102,635 L80,613 L73,605 L62,593 L55,585 L44,573 L37,566 L26,557 L14,546 L3,537 L-13,525 L-23,515 L-32,502 L-41,483 L-47,467 L-47,422 L-42,405 L-40,390 L-40,337 L-38,328 L-32,319 L-31,317 L-30,88 L-27,83 L-14,72 L-2,59 L-1,58 Z " transform="translate(144,300)" style="fill: rgb(188, 221, 231);"></path>
<path d="M0,0 L26,0 L46,4 L54,8 L60,15 L65,27 L68,39 L68,63 L64,82 L58,99 L51,110 L40,122 L30,129 L20,134 L-11,144 L-31,144 L-54,138 L-73,131 L-86,124 L-96,114 L-106,98 L-113,84 L-116,72 L-116,54 L-112,44 L-105,35 L-96,26 L-86,18 L-78,16 L-58,9 L-40,4 L-28,2 Z " transform="translate(582,541)" style="fill: rgb(88, 81, 9);"></path>
<path d="M0,0 L35,0 L55,4 L71,12 L79,21 L86,35 L89,47 L89,61 L86,78 L80,94 L73,107 L65,117 L58,124 L43,134 L31,140 L16,145 L4,148 L-19,148 L-39,142 L-56,135 L-65,128 L-74,116 L-82,103 L-84,95 L-84,91 L-86,91 L-87,85 L-87,59 L-85,59 L-84,47 L-77,34 L-65,22 L-52,14 L-22,4 L-9,1 Z " transform="translate(297,603)" style="fill: rgb(88, 81, 9);"></path>
<path d="M0,0 L11,0 L11,45 L13,45 L17,53 L31,67 L45,78 L61,91 L70,98 L82,109 L120,147 L127,155 L136,165 L144,174 L151,182 L182,213 L190,220 L208,238 L213,244 L224,253 L240,266 L250,274 L266,285 L279,295 L303,309 L311,313 L315,314 L334,314 L346,308 L362,295 L372,286 L383,277 L393,268 L405,257 L421,242 L429,234 L438,223 L450,213 L453,212 L450,221 L444,232 L429,248 L420,258 L413,266 L400,279 L392,286 L363,315 L344,329 L336,335 L328,337 L311,337 L295,329 L281,319 L270,312 L250,302 L234,292 L220,281 L207,270 L197,261 L182,247 L157,222 L150,214 L141,204 L130,193 L122,186 L115,178 L94,157 L87,149 L67,129 L59,122 L47,111 L34,99 L23,90 L4,71 L-1,62 L-1,13 Z " transform="translate(134,706)" style="fill: rgb(243, 150, 63);"></path>
<path d="M0,0 L1,0 L1,347 L-2,352 L-8,355 L-26,355 L-31,350 L-32,346 L-33,122 L-35,104 L-40,89 L-40,87 L-38,87 L-36,78 L-28,52 L-19,32 L-8,14 L-1,5 Z " transform="translate(406,89)" style="fill: rgb(238, 185, 181);"></path>
<path d="M0,0 L1,0 L2,86 L14,69 L24,59 L30,57 L30,47 L31,47 L31,352 L0,352 Z " transform="translate(509,83)" style="fill: rgb(238, 185, 181);"></path>
<path d="M0,0 L2,0 L2,248 L0,257 L-5,261 L-8,262 L-17,262 L-22,259 L-24,254 L-25,245 L-26,98 L-29,79 L-30,75 L-27,45 L-21,27 L-13,12 L-5,3 Z " transform="translate(270,215)" style="fill: rgb(238, 185, 181);"></path>
<path d="M0,0 L2,1 L-14,17 L-16,17 L-14,13 L-4,3 Z " transform="translate(236,622)" style="fill: rgb(92, 61, 107);"></path>
<path d="M0,0 L2,1 L-5,8 L-6,6 L-1,1 Z " transform="translate(424,640)" style="fill: rgb(64, 124, 237);"></path>
</svg>
