<svg xmlns="http://www.w3.org/2000/svg" xmlns:xlink="http://www.w3.org/1999/xlink" width="260" zoomAndPan="magnify" viewBox="0 0 194.87999 195.000001" height="260" preserveAspectRatio="xMidYMid meet" version="1.0"><defs><clipPath id="b0a5d15ec0"><path d="M 27 4 L 194.324219 4 L 194.324219 190 L 27 190 Z M 27 4 " clip-rule="nonzero"/></clipPath></defs><g clip-path="url(#b0a5d15ec0)"><path fill="#182f39" d="M 38.988281 180.113281 C 33.554688 174.660156 29.605469 168.332031 27.847656 160.777344 C 27.378906 158.757812 27.046875 156.652344 27.042969 154.585938 C 27 110.367188 27.011719 66.148438 27.003906 21.925781 C 27.003906 17.960938 28.730469 15.078125 32.074219 12.964844 C 36.425781 10.207031 41.28125 8.917969 46.230469 8.003906 C 51.257812 7.074219 56.328125 6.292969 61.414062 5.792969 C 66.972656 5.25 72.5625 5.035156 78.144531 4.792969 C 82.636719 4.597656 87.132812 4.546875 91.628906 4.492188 C 95.425781 4.445312 99.234375 4.320312 103.023438 4.523438 C 110.273438 4.90625 117.542969 5.253906 124.75 6.078125 C 131.019531 6.796875 137.242188 8.007812 143.429688 9.273438 C 147.023438 10.007812 150.488281 11.335938 153.46875 13.609375 C 156.050781 15.582031 157.734375 18.050781 157.640625 21.464844 C 157.605469 22.777344 157.617188 24.09375 157.527344 25.660156 C 157.484375 28.628906 157.523438 31.339844 157.566406 34.050781 C 157.589844 36.046875 157.722656 38.050781 157.609375 40.039062 C 157.515625 41.6875 158.164062 42.105469 159.707031 42.0625 C 163.792969 41.949219 167.894531 41.859375 171.890625 42.988281 C 176.394531 44.261719 180.359375 46.476562 183.949219 49.511719 C 187.117188 52.195312 189.710938 55.308594 191.667969 58.914062 C 193.882812 62.988281 195.5 67.289062 195.5 72.035156 C 195.496094 81.285156 195.5 90.535156 195.5 99.78125 C 195.5 104.503906 195.578125 109.226562 195.480469 113.949219 C 195.371094 119.375 194.125 124.546875 191.144531 129.144531 C 189.304688 131.980469 187.503906 134.960938 185.121094 137.304688 C 180.390625 141.972656 174.59375 144.859375 167.878906 145.507812 C 165.128906 145.769531 162.351562 145.789062 159.585938 145.816406 C 158.167969 145.832031 157.621094 146.394531 157.621094 147.800781 C 157.613281 152.402344 157.867188 157.007812 156.726562 161.5625 C 155.105469 168.023438 152.0625 173.640625 147.363281 178.359375 C 146.621094 179.105469 145.898438 179.867188 144.988281 180.722656 C 139.753906 184.902344 134.007812 187.5 127.523438 188.8125 C 121.1875 188.921875 114.988281 189.042969 108.65625 189.140625 C 93.648438 189.105469 78.773438 189.0625 63.898438 189.09375 C 58.679688 189.105469 53.585938 188.355469 48.90625 186.101562 C 45.445312 184.433594 42.285156 182.132812 38.988281 180.113281 M 132.933594 24.230469 C 134.59375 23.949219 136.261719 23.710938 137.910156 23.375 C 141.085938 22.734375 144.292969 22.164062 147.320312 20.335938 C 142.859375 18.183594 138.335938 16.882812 133.371094 16.21875 C 129.789062 15.769531 126.203125 15.324219 122.476562 14.664062 C 116.738281 14.316406 111.003906 13.964844 105.113281 13.394531 C 98.089844 13.367188 91.066406 13.285156 84.042969 13.339844 C 81.121094 13.363281 78.203125 13.675781 75.054688 13.839844 C 73.980469 13.796875 72.898438 13.652344 71.835938 13.734375 C 67.515625 14.082031 63.195312 14.480469 58.878906 14.902344 C 52.296875 15.546875 45.828125 16.742188 39.585938 18.972656 C 38.726562 19.277344 37.941406 19.78125 36.835938 20.335938 C 38.023438 20.847656 38.777344 21.28125 39.585938 21.507812 C 42.738281 22.382812 45.882812 23.300781 49.078125 23.996094 C 51.304688 24.480469 53.601562 24.640625 55.875 24.921875 C 57.910156 25.175781 59.949219 25.394531 61.988281 25.628906 C 63.824219 25.839844 65.65625 26.121094 67.5 26.242188 C 70.195312 26.417969 72.894531 26.480469 75.726562 26.835938 C 85.566406 26.828125 95.410156 26.824219 105.511719 26.75 C 105.808594 26.691406 106.105469 26.597656 106.40625 26.578125 C 111.910156 26.222656 117.414062 25.878906 123.195312 25.535156 C 126.359375 25.0625 129.519531 24.589844 132.933594 24.230469 M 59.65625 34.585938 C 57.191406 34.328125 54.722656 34.070312 52.128906 33.597656 C 49.328125 33.167969 46.527344 32.742188 43.515625 32.203125 C 41.699219 31.667969 39.890625 31.113281 38.066406 30.609375 C 36.542969 30.183594 36.152344 30.449219 36.175781 32.003906 C 36.199219 33.34375 36.449219 34.683594 36.460938 36.027344 C 36.5 42.117188 36.492188 48.210938 36.5 54.300781 C 36.5 54.917969 36.5 55.535156 36.5 56.453125 C 38.972656 55.769531 41.191406 55.15625 43.667969 54.613281 C 46.421875 54.109375 49.171875 53.609375 51.953125 53.371094 C 52.152344 56.25 52.527344 56.671875 55.164062 57.398438 C 56.011719 57.628906 56.800781 58.089844 57.660156 58.671875 C 58.1875 59.855469 59.015625 60.996094 59.179688 62.226562 C 59.425781 64.082031 59.207031 66 58.921875 67.90625 C 56.699219 67.589844 54.476562 67.273438 52.117188 66.75 C 49.21875 66.292969 46.316406 65.835938 43.292969 65.179688 C 41.105469 64.585938 38.917969 63.992188 36.484375 63.328125 C 36.484375 64.304688 36.484375 65.023438 36.484375 65.742188 C 36.488281 74.671875 36.492188 83.601562 36.492188 92.53125 C 36.484375 112.703125 36.40625 132.871094 36.488281 153.042969 C 36.542969 166.195312 46.609375 177.632812 59.65625 179.589844 C 61.839844 179.804688 64.027344 180.203125 66.210938 180.199219 C 74.070312 180.183594 81.933594 180.035156 90.003906 180.09375 C 101.441406 180.023438 112.890625 180.210938 124.316406 179.78125 C 130.832031 179.535156 136.378906 176.476562 140.90625 171.386719 C 145.554688 166.417969 148.140625 160.636719 148.0625 153.554688 C 148.09375 153.136719 148.148438 152.722656 148.148438 152.304688 C 148.15625 125.523438 148.164062 98.746094 148.167969 71.964844 C 148.167969 69.1875 148.167969 66.410156 148.167969 63.453125 C 145.863281 64.050781 143.710938 64.613281 141.296875 65.132812 C 138.328125 65.769531 135.355469 66.40625 132.105469 66.988281 C 128.941406 67.417969 125.773438 67.84375 122.332031 68.226562 C 115.691406 68.695312 109.054688 69.164062 102.164062 69.542969 C 101.59375 69.601562 101.027344 69.714844 100.457031 69.710938 C 92.507812 69.644531 84.554688 69.566406 76.605469 69.472656 C 76.261719 69.464844 75.925781 69.277344 75.578125 68.878906 C 75.585938 62.777344 75.597656 56.675781 75.902344 50.539062 C 82.285156 50.453125 88.671875 50.351562 95.054688 50.28125 C 98.453125 50.242188 101.855469 50.253906 105.46875 50.394531 C 107.945312 50.519531 110.425781 50.640625 112.90625 50.761719 C 113.6875 50.800781 114.472656 50.824219 115.257812 50.867188 C 117.8125 51.007812 120.363281 51.15625 123.125 51.484375 C 123.242188 51.578125 123.347656 51.746094 123.476562 51.761719 C 126.550781 52.113281 129.625 52.449219 132.824219 53.003906 C 135.839844 53.621094 138.855469 54.238281 142.125 54.898438 C 143.484375 55.269531 144.847656 55.625 146.199219 56.011719 C 147.820312 56.46875 148.15625 56.242188 148.15625 54.574219 C 148.167969 47.132812 148.167969 39.695312 148.171875 32.253906 C 148.171875 31.941406 148.292969 31.527344 148.140625 31.332031 C 147.863281 30.972656 147.351562 30.4375 147.058594 30.503906 C 145.304688 30.902344 143.585938 31.449219 141.703125 31.789062 C 138.703125 32.410156 135.699219 33.03125 132.4375 33.582031 C 129.160156 34.003906 125.882812 34.421875 122.324219 34.78125 C 116.632812 35.25 110.941406 35.714844 104.972656 36.078125 C 101.722656 36.066406 98.472656 36.015625 95.222656 36.058594 C 88.679688 36.148438 82.140625 36.289062 75.367188 36.292969 C 72.710938 36.019531 70.058594 35.746094 67.140625 35.410156 C 64.703125 35.199219 62.261719 34.992188 59.65625 34.585938 M 186.003906 68.894531 C 186.0625 66.304688 184.632812 64.265625 183.320312 62.265625 C 178.683594 55.210938 172.394531 50.898438 163.367188 50.871094 C 162.019531 50.765625 160.667969 50.664062 159.316406 50.546875 C 157.792969 50.417969 157.261719 51.265625 157.328125 52.617188 C 157.378906 53.699219 157.613281 54.777344 157.609375 55.855469 C 157.605469 56.90625 158.042969 57.1875 159.027344 57.199219 C 161.785156 57.242188 164.546875 57.289062 167.292969 57.5 C 170.945312 57.785156 173.863281 59.726562 176.527344 62.046875 C 181.011719 65.949219 182.742188 71.0625 182.886719 76.84375 C 182.992188 81.125 183.203125 85.40625 183.191406 89.6875 C 183.179688 95.234375 183.035156 100.78125 182.855469 106.324219 C 182.757812 109.261719 182.628906 112.214844 182.226562 115.121094 C 181.453125 120.703125 177.96875 124.496094 173.546875 127.613281 C 169.914062 130.175781 165.820312 130.574219 161.554688 130.425781 C 157.386719 130.28125 157.183594 130.566406 157.730469 134.976562 C 157.746094 135.527344 157.558594 136.234375 157.832031 136.582031 C 158.101562 136.929688 158.828125 137.019531 159.363281 137.042969 C 160.460938 137.089844 161.570312 137.070312 162.664062 136.976562 C 164.671875 136.808594 166.710938 136.753906 168.664062 136.316406 C 172.242188 135.515625 175.257812 133.597656 178.03125 130.984375 C 178.171875 130.878906 178.308594 130.769531 178.636719 130.617188 C 178.875 130.320312 179.117188 130.023438 179.550781 129.632812 C 180.527344 128.371094 181.660156 127.199219 182.449219 125.828125 C 184.847656 121.675781 186.699219 117.367188 186.664062 112.382812 C 186.570312 99.242188 186.640625 86.101562 186.589844 72.960938 C 186.585938 71.691406 186.175781 70.425781 186.003906 68.894531 M 157.632812 95.632812 C 157.632812 103.515625 157.6875 111.398438 157.59375 119.277344 C 157.574219 120.933594 158.09375 121.390625 159.648438 121.253906 C 161.058594 121.132812 162.484375 121.226562 163.902344 121.230469 C 170.011719 121.242188 174.078125 115.722656 174.058594 110.941406 C 174.011719 99.488281 174.046875 88.035156 174.03125 76.582031 C 174.03125 75.910156 173.9375 75.222656 173.769531 74.574219 C 172.207031 68.5625 166.242188 64.550781 159.902344 65.964844 C 157.691406 66.460938 157.664062 66.328125 157.425781 68.738281 C 157.386719 72.214844 157.339844 75.6875 157.324219 79.164062 C 157.324219 79.605469 157.507812 80.046875 157.621094 80.785156 C 157.617188 82.703125 157.617188 84.621094 157.457031 86.742188 C 157.507812 89.605469 157.558594 92.472656 157.632812 95.632812 Z M 157.632812 95.632812 " fill-opacity="1" fill-rule="nonzero"/></g><path fill="#485d65" d="M 157.574219 33.914062 C 157.523438 31.339844 157.484375 28.628906 157.507812 25.8125 C 157.574219 28.398438 157.578125 31.085938 157.574219 33.914062 Z M 157.574219 33.914062 " fill-opacity="1" fill-rule="nonzero"/><path fill="#e5f5f6" d="M 102.417969 69.632812 C 109.054688 69.164062 115.691406 68.695312 122.476562 68.378906 C 122.585938 72.617188 122.546875 76.699219 122.410156 80.71875 C 120.074219 79.207031 118.894531 79.132812 117.574219 80.652344 C 114.636719 84.03125 112.105469 87.699219 110.59375 91.949219 C 108.585938 97.578125 112.042969 103.546875 117.933594 104.546875 C 119.441406 104.804688 121.042969 104.507812 122.605469 104.617188 C 122.722656 112.257812 122.839844 119.753906 122.949219 127.390625 C 122.84375 129.257812 122.765625 130.984375 122.632812 132.703125 C 122.015625 140.683594 118.539062 147.253906 112.59375 152.507812 C 108.828125 155.835938 104.367188 157.90625 99.4375 158.777344 C 96.929688 159.21875 94.34375 159.34375 91.789062 159.359375 C 90.140625 159.371094 89.679688 159.976562 89.777344 161.503906 C 89.875 163.070312 89.789062 164.648438 89.640625 166.253906 C 84.765625 166.308594 80.03125 166.464844 75.304688 166.3125 C 72.015625 166.207031 68.609375 166.136719 65.492188 165.234375 C 59.605469 163.527344 54.914062 160.097656 53.085938 153.824219 C 52.648438 152.324219 52.464844 150.742188 52.246094 149.1875 C 51.875 146.53125 50.550781 145.015625 48.175781 144.671875 C 46.058594 144.363281 44.949219 145.832031 43.722656 147.0625 C 43.582031 146.210938 43.425781 145.488281 43.429688 144.765625 C 43.519531 130.957031 43.652344 117.148438 43.714844 103.335938 C 43.730469 100.039062 43.449219 96.738281 43.433594 93.4375 C 43.390625 84.085938 43.417969 74.730469 43.417969 65.378906 C 46.316406 65.835938 49.21875 66.292969 52.132812 66.972656 C 52.078125 67.761719 51.949219 68.328125 51.945312 68.898438 C 51.929688 72.238281 51.9375 75.582031 51.9375 78.925781 C 51.9375 94.855469 51.925781 110.78125 51.949219 126.710938 C 51.953125 129.101562 53.296875 130.902344 55.421875 131.757812 C 56.832031 133.832031 58.871094 134.742188 61.136719 135.0625 C 63.09375 135.335938 65.097656 135.316406 67.082031 135.429688 C 67.082031 135.429688 67.078125 135.429688 67.078125 135.574219 C 67.464844 138.082031 67.808594 140.453125 68.261719 142.800781 C 68.363281 143.304688 68.765625 143.863281 69.191406 144.175781 C 74.933594 148.425781 81.148438 150.527344 88.375 148.667969 C 96.59375 146.554688 102.058594 141.589844 104.339844 133.414062 C 105.019531 130.984375 105.203125 128.351562 105.21875 125.808594 C 105.304688 112.726562 105.257812 99.648438 105.257812 86.566406 C 105.257812 82.625 105.402344 78.679688 105.199219 74.75 C 105.097656 72.8125 106.164062 69.894531 102.488281 69.765625 C 102.460938 69.765625 102.441406 69.679688 102.417969 69.632812 M 75.460938 162.09375 C 75.746094 161.957031 76.050781 161.851562 76.308594 161.679688 C 77.796875 160.679688 78.34375 158.785156 77.648438 157.078125 C 77.011719 155.511719 75.453125 154.535156 73.925781 154.746094 C 71.996094 155.007812 70.835938 156.257812 70.566406 158.148438 C 70.21875 160.632812 72.734375 162.902344 75.460938 162.09375 Z M 75.460938 162.09375 " fill-opacity="1" fill-rule="nonzero"/><path fill="#effffe" d="M 102.289062 69.589844 C 102.441406 69.679688 102.460938 69.765625 102.488281 69.765625 C 106.164062 69.894531 105.097656 72.8125 105.199219 74.75 C 105.402344 78.679688 105.257812 82.625 105.257812 86.566406 C 105.257812 99.648438 105.304688 112.726562 105.21875 125.808594 C 105.203125 128.351562 105.019531 130.984375 104.339844 133.414062 C 102.058594 141.589844 96.59375 146.554688 88.375 148.667969 C 81.148438 150.527344 74.933594 148.425781 69.191406 144.175781 C 68.765625 143.863281 68.363281 143.304688 68.261719 142.800781 C 67.808594 140.453125 67.464844 138.082031 67.222656 135.574219 C 69.976562 135.671875 72.167969 134.800781 73.703125 132.683594 C 74.914062 131.011719 75.617188 129.117188 75.617188 126.960938 C 75.589844 108.515625 75.601562 90.070312 75.601562 71.625 C 75.601562 70.808594 75.589844 69.992188 75.585938 69.171875 C 75.925781 69.277344 76.261719 69.464844 76.605469 69.472656 C 84.554688 69.566406 92.507812 69.644531 100.457031 69.710938 C 101.027344 69.714844 101.59375 69.601562 102.289062 69.589844 M 78.863281 134.925781 C 78.488281 135.105469 78.085938 135.253906 77.738281 135.476562 C 75.933594 136.640625 75.363281 139.15625 76.496094 140.863281 C 77.648438 142.589844 80.339844 143.117188 82.066406 141.949219 C 83.40625 141.039062 84.117188 139.089844 83.628906 137.660156 C 82.953125 135.6875 81.429688 134.738281 78.863281 134.925781 Z M 78.863281 134.925781 " fill-opacity="1" fill-rule="nonzero"/><path fill="#bbd5de" d="M 89.785156 166.222656 C 89.789062 164.648438 89.875 163.070312 89.777344 161.503906 C 89.679688 159.976562 90.140625 159.371094 91.789062 159.359375 C 94.34375 159.34375 96.929688 159.21875 99.4375 158.777344 C 104.367188 157.90625 108.828125 155.835938 112.59375 152.507812 C 118.539062 147.253906 122.015625 140.683594 122.632812 132.703125 C 122.765625 130.984375 122.84375 129.257812 123.066406 127.367188 C 124.925781 126.757812 125.414062 127.101562 125.449219 128.839844 C 125.46875 129.941406 125.453125 131.046875 125.453125 132.148438 C 125.453125 133.09375 125.429688 134.039062 125.460938 134.984375 C 125.515625 136.628906 126.679688 138.304688 128.085938 138.761719 C 129.746094 139.300781 130.917969 138.363281 131.671875 137.152344 C 132.265625 136.191406 132.671875 134.933594 132.667969 133.804688 C 132.617188 111.550781 132.492188 89.296875 132.386719 67.042969 C 135.355469 66.40625 138.328125 65.769531 141.425781 65.292969 C 141.550781 66.136719 141.542969 66.820312 141.542969 67.503906 C 141.542969 93.425781 141.546875 119.351562 141.523438 145.273438 C 141.523438 146 141.210938 146.726562 140.980469 147.378906 C 140.0625 146.503906 139.332031 145.375 138.320312 144.976562 C 135.414062 143.832031 132.777344 145.992188 132.410156 149.574219 C 132.28125 150.820312 132.1875 152.089844 131.878906 153.300781 C 130.167969 160.003906 123.503906 165.59375 115.90625 165.945312 C 107.210938 166.351562 98.492188 166.15625 89.785156 166.222656 Z M 89.785156 166.222656 " fill-opacity="1" fill-rule="nonzero"/><path fill="#fbfdfd" d="M 43.355469 65.277344 C 43.417969 74.730469 43.390625 84.085938 43.433594 93.4375 C 43.449219 96.738281 43.730469 100.039062 43.714844 103.335938 C 43.652344 117.148438 43.519531 130.957031 43.429688 144.765625 C 43.425781 145.488281 43.582031 146.210938 43.707031 147.191406 C 43.636719 148.273438 43.449219 149.101562 43.410156 149.9375 C 42.972656 159.078125 49.128906 168.46875 57.839844 172.011719 C 59.042969 172.503906 60.214844 173.070312 61.410156 173.722656 C 61.332031 174.726562 61.425781 175.675781 61.125 176.472656 C 60.734375 177.527344 60.035156 178.460938 59.464844 179.449219 C 46.609375 177.632812 36.542969 166.195312 36.488281 153.042969 C 36.40625 132.871094 36.484375 112.703125 36.492188 92.53125 C 36.492188 83.601562 36.488281 74.671875 36.484375 65.742188 C 36.484375 65.023438 36.484375 64.304688 36.484375 63.328125 C 38.917969 63.992188 41.105469 64.585938 43.355469 65.277344 Z M 43.355469 65.277344 " fill-opacity="1" fill-rule="nonzero"/><path fill="#feffff" d="M 75.582031 69.023438 C 75.589844 69.992188 75.601562 70.808594 75.601562 71.625 C 75.601562 90.070312 75.589844 108.515625 75.617188 126.960938 C 75.617188 129.117188 74.914062 131.011719 73.703125 132.683594 C 72.167969 134.800781 69.976562 135.671875 67.222656 135.429688 C 67.078125 135.429688 67.082031 135.429688 67.082031 135.28125 C 67.082031 112.386719 67.074219 89.640625 67.09375 66.890625 C 67.097656 64.644531 67.332031 62.394531 67.363281 60.144531 C 67.375 59.226562 67.140625 58.300781 67.007812 57.238281 C 66.992188 55.085938 66.984375 53.074219 67 50.902344 C 67.042969 46.421875 67.046875 42.097656 67.09375 37.773438 C 67.105469 37.007812 67.292969 36.242188 67.402344 35.472656 C 70.058594 35.746094 72.710938 36.019531 75.484375 36.492188 C 75.601562 41.324219 75.605469 45.949219 75.609375 50.574219 C 75.597656 56.675781 75.585938 62.777344 75.582031 69.023438 Z M 75.582031 69.023438 " fill-opacity="1" fill-rule="nonzero"/><path fill="#edfefe" d="M 67.015625 57.378906 C 67.140625 58.300781 67.375 59.226562 67.363281 60.144531 C 67.332031 62.394531 67.097656 64.644531 67.09375 66.890625 C 67.074219 89.640625 67.082031 112.386719 67.078125 135.28125 C 65.097656 135.316406 63.09375 135.335938 61.136719 135.0625 C 58.871094 134.742188 56.832031 133.832031 55.546875 131.753906 C 58.621094 131.199219 59.519531 130.179688 59.503906 127.125 C 59.40625 107.382812 59.296875 87.636719 59.1875 67.890625 C 59.207031 66 59.425781 64.082031 59.179688 62.226562 C 59.015625 60.996094 58.1875 59.855469 57.710938 58.484375 C 58.425781 57.921875 59.089844 57.546875 59.8125 57.269531 C 61.160156 59.660156 62.910156 60.429688 64.875 59.363281 C 65.703125 58.914062 66.308594 58.050781 67.015625 57.378906 Z M 67.015625 57.378906 " fill-opacity="1" fill-rule="nonzero"/><path fill="#dcedf1" d="M 141.042969 147.457031 C 141.210938 146.726562 141.523438 146 141.523438 145.273438 C 141.546875 119.351562 141.542969 93.425781 141.542969 67.503906 C 141.542969 66.820312 141.550781 66.136719 141.558594 65.3125 C 143.710938 64.613281 145.863281 64.050781 148.167969 63.453125 C 148.167969 66.410156 148.167969 69.1875 148.167969 71.964844 C 148.164062 98.746094 148.15625 125.523438 148.148438 152.304688 C 148.148438 152.722656 148.09375 153.136719 147.824219 153.640625 C 146.765625 153.617188 145.945312 153.484375 145.117188 153.40625 C 144.179688 153.316406 143.703125 152.878906 143.746094 151.890625 C 143.785156 151.058594 143.800781 150.21875 143.730469 149.390625 C 143.691406 148.953125 143.445312 148.539062 143.269531 148.042969 C 142.574219 148.691406 142.074219 149.160156 141.539062 149.503906 C 141.351562 148.742188 141.199219 148.101562 141.042969 147.457031 Z M 141.042969 147.457031 " fill-opacity="1" fill-rule="nonzero"/><path fill="#d2e6eb" d="M 132.246094 67.015625 C 132.492188 89.296875 132.617188 111.550781 132.667969 133.804688 C 132.671875 134.933594 132.265625 136.191406 131.671875 137.152344 C 130.917969 138.363281 129.746094 139.300781 128.085938 138.761719 C 126.679688 138.304688 125.515625 136.628906 125.460938 134.984375 C 125.429688 134.039062 125.453125 133.09375 125.453125 132.148438 C 125.453125 131.046875 125.46875 129.941406 125.449219 128.839844 C 125.414062 127.101562 124.925781 126.757812 123.066406 127.21875 C 122.839844 119.753906 122.722656 112.257812 122.6875 104.539062 C 128.890625 101.960938 131.308594 96.101562 128.296875 90.285156 C 126.597656 87 124.453125 83.941406 122.507812 80.78125 C 122.546875 76.699219 122.585938 72.617188 122.617188 68.402344 C 125.773438 67.84375 128.941406 67.417969 132.246094 67.015625 Z M 132.246094 67.015625 " fill-opacity="1" fill-rule="nonzero"/><path fill="#feffff" d="M 59.054688 67.898438 C 59.296875 87.636719 59.40625 107.382812 59.503906 127.125 C 59.519531 130.179688 58.621094 131.199219 55.527344 131.644531 C 53.296875 130.902344 51.953125 129.101562 51.949219 126.710938 C 51.925781 110.78125 51.9375 94.855469 51.9375 78.925781 C 51.9375 75.582031 51.929688 72.238281 51.945312 68.898438 C 51.949219 68.328125 52.078125 67.761719 52.203125 67.074219 C 54.476562 67.273438 56.699219 67.589844 59.054688 67.898438 Z M 59.054688 67.898438 " fill-opacity="1" fill-rule="nonzero"/><path fill="#effffe" d="M 75.757812 50.558594 C 75.605469 45.949219 75.601562 41.324219 75.597656 36.550781 C 82.140625 36.289062 88.679688 36.148438 95.222656 36.058594 C 98.472656 36.015625 101.722656 36.066406 105.101562 36.246094 C 105.242188 37.644531 105.257812 38.871094 105.257812 40.097656 C 105.261719 43.480469 105.257812 46.859375 105.257812 50.242188 C 101.855469 50.253906 98.453125 50.242188 95.054688 50.28125 C 88.671875 50.351562 82.285156 50.453125 75.757812 50.558594 Z M 75.757812 50.558594 " fill-opacity="1" fill-rule="nonzero"/><path fill="#d6e7e9" d="M 157.867188 134.769531 C 157.183594 130.566406 157.386719 130.28125 161.554688 130.425781 C 165.820312 130.574219 169.914062 130.175781 173.546875 127.613281 C 177.96875 124.496094 181.453125 120.703125 182.226562 115.121094 C 182.628906 112.214844 182.757812 109.261719 182.855469 106.324219 C 183.035156 100.78125 183.179688 95.234375 183.191406 89.6875 C 183.203125 85.40625 182.992188 81.125 182.886719 76.84375 C 182.742188 71.0625 181.011719 65.949219 176.527344 62.046875 C 173.863281 59.726562 170.945312 57.785156 167.292969 57.5 C 164.546875 57.289062 161.785156 57.242188 159.027344 57.199219 C 158.042969 57.1875 157.605469 56.90625 157.609375 55.855469 C 157.613281 54.777344 157.378906 53.699219 157.328125 52.617188 C 157.261719 51.265625 157.792969 50.417969 159.316406 50.546875 C 160.667969 50.664062 162.019531 50.765625 163.503906 51.027344 C 163.367188 54.15625 163.5 54.4375 166.445312 55.109375 C 173.457031 56.71875 178.703125 60.554688 181.976562 67.039062 C 183.214844 69.492188 183.304688 69.449219 185.953125 69.15625 C 186.175781 70.425781 186.585938 71.691406 186.589844 72.960938 C 186.640625 86.101562 186.570312 99.242188 186.664062 112.382812 C 186.699219 117.367188 184.847656 121.675781 182.449219 125.828125 C 181.660156 127.199219 180.527344 128.371094 179.34375 129.683594 C 178.910156 130.042969 178.675781 130.351562 178.445312 130.660156 C 178.308594 130.769531 178.171875 130.878906 177.824219 131 C 177.007812 131.296875 176.410156 131.597656 175.792969 131.851562 C 173.628906 132.734375 171.523438 134.074219 169.28125 134.363281 C 165.523438 134.855469 161.675781 134.671875 157.867188 134.769531 Z M 157.867188 134.769531 " fill-opacity="1" fill-rule="nonzero"/><path fill="#eefefe" d="M 75.285156 13.855469 C 78.203125 13.675781 81.121094 13.363281 84.042969 13.339844 C 91.066406 13.285156 98.089844 13.367188 105.1875 13.652344 C 105.261719 18.214844 105.257812 22.515625 105.253906 26.816406 C 95.410156 26.824219 85.566406 26.828125 75.660156 26.566406 C 75.492188 22.148438 75.390625 18.003906 75.285156 13.855469 Z M 75.285156 13.855469 " fill-opacity="1" fill-rule="nonzero"/><path fill="#fafbfb" d="M 75.171875 13.847656 C 75.390625 18.003906 75.492188 22.148438 75.59375 26.445312 C 72.894531 26.480469 70.195312 26.417969 67.5 26.242188 C 65.65625 26.121094 63.824219 25.839844 61.988281 25.628906 C 59.949219 25.394531 57.910156 25.175781 55.875 24.921875 C 53.601562 24.640625 51.304688 24.480469 49.078125 23.996094 C 45.882812 23.300781 42.738281 22.382812 39.585938 21.507812 C 38.777344 21.28125 38.023438 20.847656 36.835938 20.335938 C 37.941406 19.78125 38.726562 19.277344 39.585938 18.972656 C 45.828125 16.742188 52.296875 15.546875 58.878906 14.902344 C 63.195312 14.480469 67.515625 14.082031 71.835938 13.734375 C 72.898438 13.652344 73.980469 13.796875 75.171875 13.847656 Z M 75.171875 13.847656 " fill-opacity="1" fill-rule="nonzero"/><path fill="#bbd2d9" d="M 140.722656 171.476562 C 136.378906 176.476562 130.832031 179.535156 124.316406 179.78125 C 112.890625 180.210938 101.441406 180.023438 89.902344 179.867188 C 89.800781 177.9375 89.800781 176.234375 89.945312 174.5 C 95.546875 174.433594 101.003906 174.417969 106.457031 174.363281 C 110.863281 174.320312 115.292969 174.496094 119.664062 174.082031 C 125.351562 173.542969 130.242188 170.90625 134.59375 167.339844 C 135.90625 169.324219 136.996094 171.472656 139.855469 171.152344 C 140.128906 171.121094 140.429688 171.363281 140.722656 171.476562 Z M 140.722656 171.476562 " fill-opacity="1" fill-rule="nonzero"/><path fill="#e3f2f4" d="M 105.363281 50.320312 C 105.257812 46.859375 105.261719 43.480469 105.257812 40.097656 C 105.257812 38.871094 105.242188 37.644531 105.242188 36.296875 C 110.941406 35.714844 116.632812 35.25 122.464844 34.953125 C 122.710938 40.519531 122.8125 45.910156 122.917969 51.300781 C 120.363281 51.15625 117.8125 51.007812 115.257812 50.867188 C 114.472656 50.824219 113.6875 50.800781 112.90625 50.761719 C 110.425781 50.640625 107.945312 50.519531 105.363281 50.320312 Z M 105.363281 50.320312 " fill-opacity="1" fill-rule="nonzero"/><path fill="#e4f3f5" d="M 105.382812 26.78125 C 105.257812 22.515625 105.261719 18.214844 105.265625 13.765625 C 111.003906 13.964844 116.738281 14.316406 122.566406 14.902344 C 122.75 15.753906 122.910156 16.363281 122.917969 16.976562 C 122.941406 19.828125 122.921875 22.679688 122.921875 25.53125 C 117.414062 25.878906 111.910156 26.222656 106.40625 26.578125 C 106.105469 26.597656 105.808594 26.691406 105.382812 26.78125 Z M 105.382812 26.78125 " fill-opacity="1" fill-rule="nonzero"/><path fill="#bbd5de" d="M 141.875 54.855469 C 138.855469 54.238281 135.839844 53.621094 132.765625 52.746094 C 132.703125 46.210938 132.699219 39.933594 132.699219 33.652344 C 135.699219 33.03125 138.703125 32.410156 141.78125 32.015625 C 141.863281 39.78125 141.867188 47.316406 141.875 54.855469 Z M 141.875 54.855469 " fill-opacity="1" fill-rule="nonzero"/><path fill="#e5f5f6" d="M 51.925781 53.105469 C 49.171875 53.609375 46.421875 54.109375 43.539062 54.4375 C 43.414062 47.769531 43.40625 41.277344 43.433594 34.785156 C 43.4375 33.960938 43.625 33.136719 43.730469 32.3125 C 46.527344 32.742188 49.328125 33.167969 52.191406 33.851562 C 52.144531 40.4375 52.035156 46.773438 51.925781 53.105469 Z M 51.925781 53.105469 " fill-opacity="1" fill-rule="nonzero"/><path fill="#d2e6eb" d="M 132.566406 33.617188 C 132.699219 39.933594 132.703125 46.210938 132.703125 52.640625 C 129.625 52.449219 126.550781 52.113281 123.476562 51.761719 C 123.347656 51.746094 123.242188 51.578125 123.019531 51.394531 C 122.8125 45.910156 122.710938 40.519531 122.609375 34.984375 C 125.882812 34.421875 129.160156 34.003906 132.566406 33.617188 Z M 132.566406 33.617188 " fill-opacity="1" fill-rule="nonzero"/><path fill="#e2f1f3" d="M 89.804688 174.535156 C 89.800781 176.234375 89.800781 177.9375 89.796875 179.785156 C 81.933594 180.035156 74.070312 180.183594 66.210938 180.199219 C 64.027344 180.203125 61.839844 179.804688 59.5625 179.519531 C 60.035156 178.460938 60.734375 177.527344 61.125 176.472656 C 61.425781 175.675781 61.332031 174.726562 61.542969 173.710938 C 66.144531 173.808594 70.613281 174.109375 75.089844 174.257812 C 79.992188 174.421875 84.898438 174.449219 89.804688 174.535156 Z M 89.804688 174.535156 " fill-opacity="1" fill-rule="nonzero"/><path fill="#fbfdfd" d="M 51.9375 53.238281 C 52.035156 46.773438 52.144531 40.4375 52.257812 33.957031 C 54.722656 34.070312 57.191406 34.328125 59.742188 34.824219 C 59.816406 35.480469 59.808594 35.898438 59.804688 36.320312 C 59.742188 41.449219 59.683594 46.578125 59.585938 51.835938 C 59.617188 53.703125 59.6875 55.4375 59.753906 57.175781 C 59.089844 57.546875 58.425781 57.921875 57.6875 58.371094 C 56.800781 58.089844 56.011719 57.628906 55.164062 57.398438 C 52.527344 56.671875 52.152344 56.25 51.9375 53.238281 Z M 51.9375 53.238281 " fill-opacity="1" fill-rule="nonzero"/><path fill="#fbfdfd" d="M 43.621094 32.257812 C 43.625 33.136719 43.4375 33.960938 43.433594 34.785156 C 43.40625 41.277344 43.414062 47.769531 43.410156 54.402344 C 41.191406 55.15625 38.972656 55.769531 36.5 56.453125 C 36.5 55.535156 36.5 54.917969 36.5 54.300781 C 36.492188 48.210938 36.5 42.117188 36.460938 36.027344 C 36.449219 34.683594 36.199219 33.34375 36.175781 32.003906 C 36.152344 30.449219 36.542969 30.183594 38.066406 30.609375 C 39.890625 31.113281 41.699219 31.667969 43.621094 32.257812 Z M 43.621094 32.257812 " fill-opacity="1" fill-rule="nonzero"/><path fill="#dcedf1" d="M 142 54.875 C 141.867188 47.316406 141.863281 39.78125 141.859375 32.097656 C 143.585938 31.449219 145.304688 30.902344 147.058594 30.503906 C 147.351562 30.4375 147.863281 30.972656 148.140625 31.332031 C 148.292969 31.527344 148.171875 31.941406 148.171875 32.253906 C 148.167969 39.695312 148.167969 47.132812 148.15625 54.574219 C 148.15625 56.242188 147.820312 56.46875 146.199219 56.011719 C 144.847656 55.625 143.484375 55.269531 142 54.875 Z M 142 54.875 " fill-opacity="1" fill-rule="nonzero"/><path fill="#d2e6eb" d="M 140.8125 171.429688 C 140.429688 171.363281 140.128906 171.121094 139.855469 171.152344 C 136.996094 171.472656 135.90625 169.324219 134.636719 167.246094 C 135.46875 166.011719 136.324219 165.019531 137.085938 163.957031 C 140.140625 159.675781 141.132812 154.734375 141.574219 149.625 C 142.074219 149.160156 142.574219 148.691406 143.269531 148.042969 C 143.445312 148.539062 143.691406 148.953125 143.730469 149.390625 C 143.800781 150.21875 143.785156 151.058594 143.746094 151.890625 C 143.703125 152.878906 144.179688 153.316406 145.117188 153.40625 C 145.945312 153.484375 146.765625 153.617188 147.722656 153.726562 C 148.140625 160.636719 145.554688 166.417969 140.8125 171.429688 Z M 140.8125 171.429688 " fill-opacity="1" fill-rule="nonzero"/><path fill="#ecfdfd" d="M 59.621094 51.707031 C 59.683594 46.578125 59.742188 41.449219 59.804688 36.320312 C 59.808594 35.898438 59.816406 35.480469 59.824219 34.921875 C 62.261719 34.992188 64.703125 35.199219 67.273438 35.441406 C 67.292969 36.242188 67.105469 37.007812 67.09375 37.773438 C 67.046875 42.097656 67.042969 46.421875 66.878906 50.867188 C 64.359375 51.226562 61.992188 51.46875 59.621094 51.707031 Z M 59.621094 51.707031 " fill-opacity="1" fill-rule="nonzero"/><path fill="#fafbfb" d="M 185.980469 69.027344 C 183.304688 69.449219 183.214844 69.492188 181.976562 67.039062 C 178.703125 60.554688 173.457031 56.71875 166.445312 55.109375 C 163.5 54.4375 163.367188 54.15625 163.640625 51.054688 C 172.394531 50.898438 178.683594 55.210938 183.320312 62.265625 C 184.632812 64.265625 186.0625 66.304688 185.980469 69.027344 Z M 185.980469 69.027344 " fill-opacity="1" fill-rule="nonzero"/><path fill="#d2e6eb" d="M 123.058594 25.53125 C 122.921875 22.679688 122.941406 19.828125 122.917969 16.976562 C 122.910156 16.363281 122.75 15.753906 122.640625 15.011719 C 126.203125 15.324219 129.789062 15.769531 133.34375 16.363281 C 133.117188 17.058594 132.761719 17.609375 132.742188 18.167969 C 132.660156 20.152344 132.691406 22.136719 132.683594 24.121094 C 129.519531 24.589844 126.359375 25.0625 123.058594 25.53125 Z M 123.058594 25.53125 " fill-opacity="1" fill-rule="nonzero"/><path fill="#bbd2d9" d="M 132.808594 24.175781 C 132.691406 22.136719 132.660156 20.152344 132.742188 18.167969 C 132.761719 17.609375 133.117188 17.058594 133.445312 16.445312 C 138.335938 16.882812 142.859375 18.183594 147.320312 20.335938 C 144.292969 22.164062 141.085938 22.734375 137.910156 23.375 C 136.261719 23.710938 134.59375 23.949219 132.808594 24.175781 Z M 132.808594 24.175781 " fill-opacity="1" fill-rule="nonzero"/><path fill="#bbd2d9" d="M 157.800781 134.871094 C 161.675781 134.671875 165.523438 134.855469 169.28125 134.363281 C 171.523438 134.074219 173.628906 132.734375 175.792969 131.851562 C 176.410156 131.597656 177.007812 131.296875 177.734375 131.019531 C 175.257812 133.597656 172.242188 135.515625 168.664062 136.316406 C 166.710938 136.753906 164.671875 136.808594 162.664062 136.976562 C 161.570312 137.070312 160.460938 137.089844 159.363281 137.042969 C 158.828125 137.019531 158.101562 136.929688 157.832031 136.582031 C 157.558594 136.234375 157.746094 135.527344 157.800781 134.871094 Z M 157.800781 134.871094 " fill-opacity="1" fill-rule="nonzero"/><path fill="#485d65" d="M 157.523438 68.648438 C 157.621094 72.4375 157.625 76.316406 157.617188 80.34375 C 157.507812 80.046875 157.324219 79.605469 157.324219 79.164062 C 157.339844 75.6875 157.386719 72.214844 157.523438 68.648438 Z M 157.523438 68.648438 " fill-opacity="1" fill-rule="nonzero"/><path fill="#203740" d="M 157.535156 86.640625 C 157.621094 89.375 157.625 92.210938 157.621094 95.191406 C 157.558594 92.472656 157.507812 89.605469 157.535156 86.640625 Z M 157.535156 86.640625 " fill-opacity="1" fill-rule="nonzero"/><path fill="#bbd2d9" d="M 178.542969 130.640625 C 178.675781 130.351562 178.910156 130.042969 179.25 129.734375 C 179.117188 130.023438 178.875 130.320312 178.542969 130.640625 Z M 178.542969 130.640625 " fill-opacity="1" fill-rule="nonzero"/><path fill="#18313a" d="M 141.539062 149.503906 C 141.132812 154.734375 140.140625 159.675781 137.085938 163.957031 C 136.324219 165.019531 135.46875 166.011719 134.613281 167.132812 C 130.242188 170.90625 125.351562 173.542969 119.664062 174.082031 C 115.292969 174.496094 110.863281 174.320312 106.457031 174.363281 C 101.003906 174.417969 95.546875 174.433594 89.945312 174.5 C 84.898438 174.449219 79.992188 174.421875 75.089844 174.257812 C 70.613281 174.109375 66.144531 173.808594 61.539062 173.585938 C 60.214844 173.070312 59.042969 172.503906 57.839844 172.011719 C 49.128906 168.46875 42.972656 159.078125 43.410156 149.9375 C 43.449219 149.101562 43.636719 148.273438 43.765625 147.316406 C 44.949219 145.832031 46.058594 144.363281 48.175781 144.671875 C 50.550781 145.015625 51.875 146.53125 52.246094 149.1875 C 52.464844 150.742188 52.648438 152.324219 53.085938 153.824219 C 54.914062 160.097656 59.605469 163.527344 65.492188 165.234375 C 68.609375 166.136719 72.015625 166.207031 75.304688 166.3125 C 80.03125 166.464844 84.765625 166.308594 89.640625 166.253906 C 98.492188 166.15625 107.210938 166.351562 115.90625 165.945312 C 123.503906 165.59375 130.167969 160.003906 131.878906 153.300781 C 132.1875 152.089844 132.28125 150.820312 132.410156 149.574219 C 132.777344 145.992188 135.414062 143.832031 138.320312 144.976562 C 139.332031 145.375 140.0625 146.503906 140.980469 147.378906 C 141.199219 148.101562 141.351562 148.742188 141.539062 149.503906 Z M 141.539062 149.503906 " fill-opacity="1" fill-rule="nonzero"/><path fill="#19303a" d="M 122.410156 80.71875 C 124.453125 83.941406 126.597656 87 128.296875 90.285156 C 131.308594 96.101562 128.890625 101.960938 122.683594 104.390625 C 121.042969 104.507812 119.441406 104.804688 117.933594 104.546875 C 112.042969 103.546875 108.585938 97.578125 110.59375 91.949219 C 112.105469 87.699219 114.636719 84.03125 117.574219 80.652344 C 118.894531 79.132812 120.074219 79.207031 122.410156 80.71875 Z M 122.410156 80.71875 " fill-opacity="1" fill-rule="nonzero"/><path fill="#19303a" d="M 75.34375 162.136719 C 72.734375 162.902344 70.21875 160.632812 70.566406 158.148438 C 70.835938 156.257812 71.996094 155.007812 73.925781 154.746094 C 75.453125 154.535156 77.011719 155.511719 77.648438 157.078125 C 78.34375 158.785156 77.796875 160.679688 76.308594 161.679688 C 76.050781 161.851562 75.746094 161.957031 75.34375 162.136719 Z M 75.34375 162.136719 " fill-opacity="1" fill-rule="nonzero"/><path fill="#bfd6dd" d="M 78.984375 134.886719 C 81.429688 134.738281 82.953125 135.6875 83.628906 137.660156 C 84.117188 139.089844 83.40625 141.039062 82.066406 141.949219 C 80.339844 143.117188 77.648438 142.589844 76.496094 140.863281 C 75.363281 139.15625 75.933594 136.640625 77.738281 135.476562 C 78.085938 135.253906 78.488281 135.105469 78.984375 134.886719 Z M 78.984375 134.886719 " fill-opacity="1" fill-rule="nonzero"/><path fill="#203740" d="M 59.585938 51.835938 C 61.992188 51.46875 64.359375 51.226562 66.851562 51.023438 C 66.984375 53.074219 66.992188 55.085938 67.007812 57.238281 C 66.308594 58.050781 65.703125 58.914062 64.875 59.363281 C 62.910156 60.429688 61.160156 59.660156 59.8125 57.269531 C 59.6875 55.4375 59.617188 53.703125 59.585938 51.835938 Z M 59.585938 51.835938 " fill-opacity="1" fill-rule="nonzero"/></svg>